<?xml version="1.0" encoding="UTF-8"?>
<svg xmlns="http://www.w3.org/2000/svg" xmlns:xlink="http://www.w3.org/1999/xlink" width="200px" height="200px" viewBox="0 0 200 200" version="1.1">
<g id="surface1">
<path style=" stroke:none;fill-rule:evenodd;fill:rgb(81.176472%,39.215687%,60.392159%);fill-opacity:1;" d="M 172.011719 114.839844 C 165.027344 114.882812 158.988281 117.140625 153.917969 120.464844 C 152.050781 115.515625 150.183594 111.191406 149.859375 107.957031 C 149.5 104.203125 149.078125 101.921875 149.5 97.425781 C 149.925781 92.953125 151.871094 86.59375 151.871094 86.070312 C 151.839844 85.59375 151.449219 83.3125 147.421875 83.25 C 143.410156 83.203125 139.9375 84.289062 139.546875 85.703125 C 139.15625 87.113281 138.375 90.347656 137.875 93.671875 C 137.175781 98.578125 129.851562 115.925781 125.675781 125.046875 C 124.3125 121.507812 123.144531 118.378906 122.914062 115.882812 C 122.558594 112.125 122.136719 109.847656 122.558594 105.351562 C 122.980469 100.878906 124.929688 94.515625 124.929688 93.996094 C 124.898438 93.519531 124.507812 91.238281 120.480469 91.171875 C 116.46875 91.128906 112.992188 92.214844 112.601562 93.628906 C 112.214844 95.039062 111.789062 98.359375 110.929688 101.597656 C 110.117188 104.832031 100.375 133.796875 97.839844 141.351562 C 96.558594 145.21875 95.421875 148.277344 94.609375 150.363281 C 93.796875 152.449219 94.574219 150.515625 94.496094 150.734375 C 93.796875 152.511719 93.40625 153.492188 93.40625 153.492188 L 93.40625 153.535156 C 92.855469 154.835938 92.269531 156.097656 92.007812 156.097656 C 91.816406 156.097656 91.425781 152.601562 92.089844 147.800781 C 93.535156 137.75 97.042969 122.050781 96.996094 121.484375 C 96.996094 121.226562 97.660156 118.46875 94.738281 117.054688 C 91.894531 115.644531 90.871094 117.988281 90.644531 117.988281 C 90.417969 117.988281 90.222656 118.816406 90.222656 118.816406 C 90.222656 118.816406 93.375 101.140625 84.179688 101.140625 C 78.417969 101.140625 70.457031 109.519531 66.527344 117.1875 C 64.027344 119.011719 58.730469 122.875 53.113281 126.980469 C 50.96875 128.542969 48.746094 130.214844 46.648438 131.710938 L 46.226562 131.082031 C 35.070312 115.253906 14.445312 104.007812 15.304688 82.640625 C 15.613281 74.867188 17.644531 54.390625 54.914062 29.59375 C 85.433594 9.273438 109.875 14.851562 114.128906 27.25 C 120.171875 44.96875 101.070312 77.90625 69.335938 82.640625 C 57.253906 84.464844 50.902344 78.210938 49.296875 75.867188 C 47.625 73.414062 47.378906 73.304688 46.761719 73.78125 C 45.757812 74.519531 46.375 76.691406 46.761719 77.992188 C 47.703125 81.273438 51.601562 87.113281 58.230469 90.023438 C 64.042969 92.585938 78.222656 93.972656 95.371094 85.117188 C 114.585938 75.171875 129.589844 47.53125 125.1875 24.449219 C 120.707031 0.976562 91.554688 -6.753906 63.996094 6.339844 C 47.589844 14.15625 29.808594 26.359375 17.027344 42.363281 C 1.824219 61.316406 -0.59375 77.886719 0.410156 84.769531 C 3.953125 109.324219 29.253906 125.308594 39.390625 137.140625 C 38.886719 137.507812 38.414062 137.878906 37.992188 138.183594 C 32.925781 141.527344 13.632812 155.011719 8.792969 169.296875 C 3.335938 185.453125 9.652344 197.089844 13.859375 198.652344 C 26.882812 203.496094 40.21875 194.789062 47.429688 180.457031 C 54.605469 166.128906 53.746094 147.519531 50.433594 139.03125 L 50.320312 138.726562 L 54.296875 135.597656 C 56.863281 133.558594 59.398438 131.691406 61.625 130.082031 C 60.371094 134.621094 59.480469 139.984375 59.007812 147.800781 C 58.457031 156.964844 61.265625 168.863281 64.96875 173.554688 C 66.609375 175.59375 68.558594 175.636719 69.757812 175.636719 C 74.046875 175.636719 75.996094 170.90625 78.140625 165.214844 C 80.789062 158.289062 83.125 150.253906 83.125 150.253906 C 83.125 150.253906 80.203125 171.988281 88.191406 171.988281 C 91.117188 171.988281 94.039062 166.929688 95.371094 164.324219 L 95.371094 164.367188 C 95.371094 164.367188 95.453125 164.214844 95.597656 163.847656 C 95.761719 163.523438 95.921875 163.195312 96.070312 162.847656 L 96.070312 162.738281 C 97.238281 160.027344 99.855469 153.835938 103.75 143.566406 C 108.785156 130.324219 113.609375 113.753906 113.609375 113.753906 C 113.609375 113.753906 114.082031 117.816406 115.527344 124.480469 C 116.386719 128.433594 118.253906 132.777344 119.699219 136.988281 C 118.53125 139.179688 117.832031 140.417969 117.832031 140.417969 L 117.863281 140.460938 C 116.921875 142.132812 115.882812 143.894531 114.777344 145.671875 C 110.800781 152.035156 106.042969 159.265625 105.425781 161.351562 C 104.675781 163.804688 104.839844 165.628906 106.285156 167.082031 C 107.339844 168.125 109.207031 168.34375 111.191406 168.125 C 114.777344 167.820312 117.265625 166.605469 118.515625 165.886719 C 120.464844 164.953125 122.6875 163.542969 124.832031 161.460938 C 128.730469 157.59375 131.101562 152.121094 130.875 144.828125 C 130.761719 140.808594 129.785156 136.859375 128.566406 133.101562 C 128.925781 132.429688 129.265625 131.753906 129.625 131.015625 C 135.777344 118.988281 140.535156 105.742188 140.535156 105.742188 C 140.535156 105.742188 141.007812 109.804688 142.453125 116.46875 C 143.199219 119.855469 144.679688 123.546875 145.992188 127.195312 C 140.226562 133.492188 136.605469 140.789062 135.355469 145.585938 C 133.050781 154.445312 134.851562 158.460938 138.246094 159.394531 C 139.773438 159.808594 141.949219 158.875 143.589844 157.941406 C 145.621094 157.050781 148.074219 155.554688 150.328125 153.296875 C 154.226562 149.429688 157.964844 144.066406 157.769531 136.835938 C 157.65625 133.492188 156.988281 130.214844 156.09375 127.085938 C 161 124.371094 167.367188 122.808594 175.421875 124.113281 C 192.765625 126.828125 196.195312 141.308594 195.542969 147.34375 C 194.878906 153.382812 191.257812 156.726562 190.054688 157.769531 C 188.851562 158.765625 188.464844 159.113281 188.578125 159.851562 C 188.738281 160.9375 189.273438 160.894531 190.332031 160.675781 C 191.777344 160.375 199.457031 155.726562 199.765625 144.566406 C 200.238281 130.324219 190.054688 114.6875 172.011719 114.839844 Z M 38.238281 175.136719 C 32.503906 183.519531 24.433594 186.710938 21.003906 183.996094 C 17.300781 181.132812 18.746094 168.777344 25.796875 159.875 C 30.082031 154.445312 35.652344 149.453125 39.324219 146.367188 C 40.136719 145.695312 41.386719 144.695312 42.863281 143.503906 C 43.09375 143.285156 43.253906 143.199219 43.253906 143.199219 C 43.53125 142.980469 43.839844 142.71875 44.148438 142.460938 C 46.761719 155.183594 44.277344 166.324219 38.238281 175.136719 Z M 80.136719 137.054688 C 78.15625 143.566406 73.933594 160.308594 71.398438 159.351562 C 69.222656 158.570312 67.890625 145.914062 70.976562 133.40625 C 72.535156 127.109375 75.851562 119.597656 77.800781 116.6875 C 80.949219 111.996094 84.394531 110.433594 85.238281 112.367188 C 86.261719 114.839844 81.386719 132.972656 80.136719 137.054688 Z M 114.714844 159.136719 C 113.851562 159.699219 113.074219 160.132812 112.734375 159.808594 C 112.457031 159.589844 113.089844 158.808594 113.089844 158.808594 C 113.089844 158.808594 117.410156 152.601562 119.132812 149.734375 C 120.105469 148.0625 121.273438 146.128906 122.527344 143.957031 L 122.527344 144.589844 C 122.507812 152.101562 117.132812 157.117188 114.714844 159.136719 Z M 141.382812 151.015625 C 140.765625 150.386719 140.828125 148.453125 142.941406 142.417969 C 143.753906 140.027344 145.636719 136.011719 148.867188 132.210938 C 149.257812 133.773438 149.484375 135.292969 149.453125 136.683594 C 149.40625 146.066406 144.417969 149.558594 141.382812 151.015625 Z M 141.382812 151.015625 "/>
</g>
</svg>
